<?xml version="1.0" encoding="utf-8"?>
<!-- Generator: Adobe Illustrator 22.1.0, SVG Export Plug-In . SVG Version: 6.00 Build 0)  -->
<svg version="1.1" id="レイヤー_1" xmlns="http://www.w3.org/2000/svg" xmlns:xlink="http://www.w3.org/1999/xlink" x="0px"
	 y="0px" viewBox="0 0 100 100" style="enable-background:new 0 0 100 100;" xml:space="preserve">
<style type="text/css">
	.st0{fill:#052D44;}
	.st1{fill:none;stroke:#FFFFFF;stroke-width:2.5;stroke-miterlimit:10;}
</style>
<rect x="-0.2" y="2" class="st0" width="100" height="95.2"/>
<polyline class="st1" points="-19.3,45.6 -2.8,36.1 25.7,9.6 29.1,-5.6 "/>
<polyline class="st1" points="40.5,32.8 64.1,16.1 65.5,26.2 66.8,34.9 62.9,36.7 52.6,45.6 49.2,58.1 48.6,61.3 31,61.3 22.5,72.3 
	24.4,74.4 49.1,64.6 47.6,78.4 63.7,80.2 69.7,92 87.4,78.1 82.6,59.3 94.7,45.6 92.3,43.7 90.2,26.3 93.3,-5.6 "/>
<path class="st1" d="M-19.3,47.7l45.9,2.4l6-5.5l5-4.2l2.9-7.6l-1.1-3.4c-0.1-0.3-0.3-0.6-0.5-0.9L28,13.6"/>
<line class="st1" x1="28" y1="13.6" x2="24.7" y2="34.5"/>
<line class="st1" x1="40.5" y1="32.8" x2="24.7" y2="34.5"/>
<line class="st1" x1="38.9" y1="28.5" x2="49.8" y2="-2"/>
<line class="st1" x1="40.5" y1="32.8" x2="62.9" y2="36.7"/>
<line class="st1" x1="37.6" y1="40.4" x2="52.6" y2="45.6"/>
<line class="st1" x1="49.2" y1="58.1" x2="32.6" y2="44.6"/>
<line class="st1" x1="24.7" y1="34.5" x2="32.6" y2="44.6"/>
<line class="st1" x1="-2.8" y1="36.1" x2="24.7" y2="34.5"/>
<line class="st1" x1="26.7" y1="50.1" x2="31" y2="61.3"/>
<line class="st1" x1="22.5" y1="72.3" x2="-19.3" y2="63.9"/>
<line class="st1" x1="24.4" y1="74.4" x2="4.2" y2="113"/>
<line class="st1" x1="26.7" y1="76.6" x2="24.4" y2="74.4"/>
<line class="st1" x1="26.3" y1="90.5" x2="26.7" y2="76.6"/>
<line class="st1" x1="43.8" y1="82.6" x2="26.7" y2="76.6"/>
<line class="st1" x1="47.6" y1="78.4" x2="43.8" y2="82.6"/>
<line class="st1" x1="43.8" y1="88.8" x2="43.8" y2="82.6"/>
<line class="st1" x1="26.3" y1="90.5" x2="43.8" y2="88.8"/>
<line class="st1" x1="13.6" y1="112.7" x2="26.3" y2="90.5"/>
<line class="st1" x1="51" y1="112.7" x2="43.8" y2="88.8"/>
<line class="st1" x1="64.9" y1="113" x2="69.7" y2="92"/>
<line class="st1" x1="87.4" y1="78.1" x2="108.9" y2="85.7"/>
<line class="st1" x1="94.7" y1="45.6" x2="109" y2="45.6"/>
<line class="st1" x1="92.3" y1="43.7" x2="66.8" y2="34.9"/>
<line class="st1" x1="66" y1="46.5" x2="66.8" y2="34.9"/>
<line class="st1" x1="54.4" y1="57.7" x2="66" y2="46.5"/>
<line class="st1" x1="48.6" y1="61.3" x2="49.1" y2="64.6"/>
<line class="st1" x1="56.2" y1="65.4" x2="49.1" y2="64.6"/>
<line class="st1" x1="67.4" y1="73.3" x2="56.2" y2="65.4"/>
<line class="st1" x1="63.7" y1="80.2" x2="67.4" y2="73.3"/>
<line class="st1" x1="87.4" y1="78.1" x2="67.4" y2="73.3"/>
<polyline class="st1" points="71.2,61.6 72.8,59.9 67.4,54.6 54.4,57.7 49.2,58.1 "/>
<line class="st1" x1="56.2" y1="65.4" x2="71.2" y2="61.6"/>
<line class="st1" x1="67.4" y1="73.3" x2="71.2" y2="61.6"/>
<line class="st1" x1="72.8" y1="59.9" x2="82.6" y2="59.3"/>
<line class="st1" x1="67.4" y1="54.6" x2="66" y2="46.5"/>
<line class="st1" x1="28" y1="13.6" x2="25.7" y2="9.6"/>
<line class="st1" x1="64.1" y1="16.1" x2="67.4" y2="-5.6"/>
<line class="st1" x1="90.2" y1="26.3" x2="65.5" y2="26.2"/>
</svg>
