<?xml version="1.0" encoding="utf-8"?>
<!-- Generator: Adobe Illustrator 22.1.0, SVG Export Plug-In . SVG Version: 6.00 Build 0)  -->
<svg version="1.1" id="レイヤー_1" xmlns="http://www.w3.org/2000/svg" xmlns:xlink="http://www.w3.org/1999/xlink" x="0px"
	 y="0px" viewBox="0 0 100 100" style="enable-background:new 0 0 100 100;" xml:space="preserve">
<style type="text/css">
	.st0{fill:#162533;}
</style>
<path class="st0" d="M98.2,33.1H51.8c1.5-5.6,4-12.5,6.2-13.9c3.8-2.5,7.4-2,9.9,1.3c0.5,0.6,0.9,1.3,1.4,1.9
	c2.6,3.5,5.2,7.2,10.4,7.8c0.8,0.1,1.6,0.2,2.3,0.2c5.9,0,10.5-3.2,13.3-9.5c3.3-7.3,4.3-12.6,4.3-12.9c0.3-1.4-0.5-2.7-1.6-3
	c-1.1-0.3-2.3,0.5-2.5,1.9c0,0-1,4.9-3.9,11.6c-2.3,5.2-6,7.4-11.4,6.7c-3.5-0.5-5.2-2.8-7.7-6.1c-0.5-0.6-0.9-1.3-1.5-2
	c-3.8-4.9-9.5-5.8-15-2.3c-2.3,1.5-4.5,5.2-6.5,11.2c-1,2.9-1.7,5.7-2.1,7.1H1.8c-1,0-1.8,0.9-1.8,2.1v48.9c0,1.1,0.8,2.1,1.8,2.1
	h96.5c1,0,1.8-0.9,1.8-2.1V35.2C100,34,99.2,33.1,98.2,33.1z M63.2,39h8.6v10.2h-8.6V39z M64.8,54.4v10.2h-8.6V54.4H64.8z
	 M49.2,39.3h8.6v10.2h-8.6V39.3z M50.8,54.7v10.2h-8.6V54.7H50.8z M35.2,39.6h8.6v10.2h-8.6V39.6z M36.8,55v10.2h-8.6V55H36.8z
	 M21.1,39.9h8.6v10.2h-8.6V39.9z M7.1,40.2h8.6v10.2H7.1V40.2z M7.1,55.3h15.6v10.2H7.1V55.3z M17.5,80.6H7.1V70.3h10.4V80.6z
	 M67.5,80.6H21.1V70.3h46.4V80.6z M70.3,54.1h8.6v10.2h-8.6V54.1z M92.9,80.6H71.8V70.3h21.1V80.6z M92.9,64h-8.6V53.8h8.6V64z
	 M92.9,49H77.3V38.7h15.6V49z"/>
</svg>
