<?xml version="1.0" encoding="utf-8"?>
<!-- Generator: Adobe Illustrator 22.1.0, SVG Export Plug-In . SVG Version: 6.00 Build 0)  -->
<svg version="1.1" id="レイヤー_1" xmlns="http://www.w3.org/2000/svg" xmlns:xlink="http://www.w3.org/1999/xlink" x="0px"
	 y="0px" viewBox="0 0 100 100" style="enable-background:new 0 0 100 100;" xml:space="preserve">
<style type="text/css">
	.st0{fill:#052D44;}
</style>
<g>
	<path class="st0" d="M79.2,48.1c-1.7-5.2-2.5-10.7-2.2-16.2c0-0.5,0-1,0-1.5c0-5.4-1.2-10.5-3.5-15.1c-0.6,7.5-2.9,14.4-6.6,19.8
		C62.4,41.5,56.5,45,50.1,45s-12.3-3.5-16.8-9.9c-3.8-5.4-6.1-12.4-6.6-19.8c-2.3,4.5-3.5,9.7-3.5,15.1c0,0.5,0,1,0,1.5
		c0.2,5.5-0.5,10.9-2.2,16.1c-1.5,4.5-2.2,9.2-2.2,14c0,10.1,3.3,19.6,9.2,26.8C33.7,96,41.7,100,50,100s16.3-4,22.2-11.1
		c5.9-7.2,9.2-16.7,9.2-26.8C81.4,57.3,80.6,52.6,79.2,48.1z"/>
	<path class="st0" d="M49.7,25.3c-1.5,0-2.7-1.2-2.7-2.7V12.1c0-1.5,1.2-2.7,2.7-2.7h0.6c1.5,0,2.7,1.2,2.7,2.7v10.6
		c0,1.5-1.2,2.7-2.7,2.7h-0.6V25.3z"/>
	<path class="st0" d="M69.1,8.9C64,3.3,57.1,0,50,0S36,3.3,30.9,8.9c-0.8,0.9-1.6,1.9-2.3,3c0.1,16.5,8.9,30,20.1,31v-15
		c-2.4-0.5-4.3-2.6-4.3-5.2V12.1c0-2.9,2.4-5.3,5.3-5.3h0.6c2.9,0,5.3,2.4,5.3,5.3v10.6c0,2.6-1.9,4.7-4.3,5.2v15
		c11.1-1,20-14.5,20.1-31C70.7,10.9,69.9,9.9,69.1,8.9z"/>
</g>
</svg>
