<?xml version="1.0" encoding="utf-8"?>
<!-- Generator: Adobe Illustrator 22.1.0, SVG Export Plug-In . SVG Version: 6.00 Build 0)  -->
<svg version="1.1" id="レイヤー_1" xmlns="http://www.w3.org/2000/svg" xmlns:xlink="http://www.w3.org/1999/xlink" x="0px"
	 y="0px" viewBox="0 0 100 100" style="enable-background:new 0 0 100 100;" xml:space="preserve">
<style type="text/css">
	.st0{fill:#052D44;}
</style>
<path class="st0" d="M27.1,100V59.4l7.8,3.5V100h6.9V63l8.4-5l8,4.8V100h6.9V63.1l7.8-3.5V100h9.7V53.4c0-0.9-0.2-1.8-0.7-2.6
	L54.5,3.3c-0.9-1.6-2.6-2.6-4.5-2.6s-3.6,1-4.5,2.6L18.1,50.8c-0.5,0.8-0.7,1.7-0.7,2.6V100H27.1z M39.5,33.2h21.1l9.8,17l-8.2,3.7
	l-11.9-7.1l-11.9,7.1L29.8,50L39.5,33.2z"/>
</svg>
